<?xml version="1.0" encoding="UTF-8"?>
<svg xmlns="http://www.w3.org/2000/svg" width="1280" height="978" viewBox="0 0 1280 978" font-family="'Segoe UI', Helvetica, Arial, sans-serif"><rect width="100%" height="100%" fill="white" /><defs><pattern id="corridor-hatch" patternUnits="userSpaceOnUse" width="8" height="8"><rect width="8" height="8" fill="#f5f5f5" /><path d="M0,8 l8,-8 M-2,2 l4,-4 M6,10 l4,-4" stroke="#bdbdbd" stroke-width="0.5" /></pattern><filter id="shadow" x="-2%" y="-2%" width="104%" height="104%"><feDropShadow dx="1" dy="1" stdDeviation="2" flood-opacity="0.15" /></filter><symbol id="door-swing" viewBox="0 0 90 90" overflow="visible"><path d="M 0,0 Q 90,0 90,90" fill="none" stroke="#78909c" stroke-width="0.8" stroke-dasharray="3,2" /></symbol><symbol id="door-double" viewBox="0 0 180 90" overflow="visible"><path d="M 0,0 Q 90,0 90,90 M 180,0 Q 90,0 90,90" fill="none" stroke="#78909c" stroke-width="0.8" stroke-dasharray="3,2" /></symbol><symbol id="window" viewBox="0 0 100 10" overflow="visible"><rect x="0" y="3" width="100" height="4" fill="none" stroke="#2196f3" stroke-width="1.5" /><line x1="50" y1="3" x2="50" y2="7" stroke="#2196f3" stroke-width="1" /></symbol><symbol id="bed-double" viewBox="0 0 120 160" overflow="visible"><rect x="5" y="5" width="110" height="150" fill="#e0e0e0" stroke="#666" stroke-width="1" /><rect x="0" y="0" width="120" height="20" fill="#bdbdbd" stroke="#666" stroke-width="1" /></symbol><symbol id="bed-single" viewBox="0 0 72 160" overflow="visible"><rect x="5" y="5" width="62" height="150" fill="#e0e0e0" stroke="#666" stroke-width="1" /><rect x="0" y="0" width="72" height="20" fill="#bdbdbd" stroke="#666" stroke-width="1" /></symbol><symbol id="kitchen-counter" viewBox="0 0 240 48" overflow="visible"><rect x="0" y="0" width="240" height="48" fill="#f5f5f5" stroke="#666" stroke-width="1" /><circle cx="60" cy="24" r="15" fill="none" stroke="#2196f3" stroke-width="1" /><circle cx="140" cy="24" r="8" fill="none" stroke="#ff5722" stroke-width="1" /><circle cx="170" cy="24" r="8" fill="none" stroke="#ff5722" stroke-width="1" /><circle cx="200" cy="24" r="8" fill="none" stroke="#ff5722" stroke-width="1" /><circle cx="230" cy="24" r="8" fill="none" stroke="#ff5722" stroke-width="1" /></symbol><symbol id="dining-table" viewBox="0 0 96 64" overflow="visible"><rect x="0" y="0" width="96" height="64" fill="#ddd" stroke="#666" stroke-width="1" /></symbol><symbol id="chair" viewBox="0 0 40 40" overflow="visible"><rect x="5" y="5" width="30" height="30" fill="#f0f0f0" stroke="#666" stroke-width="1" /><rect x="5" y="0" width="30" height="10" fill="#e0e0e0" stroke="#666" stroke-width="1" /></symbol><symbol id="sofa" viewBox="0 0 160 72" overflow="visible"><rect x="0" y="10" width="160" height="52" fill="#e8e8e8" stroke="#666" stroke-width="1" /><rect x="0" y="0" width="160" height="20" fill="#d0d0d0" stroke="#666" stroke-width="1" /></symbol><symbol id="toilet" viewBox="0 0 56 72" overflow="visible"><rect x="8" y="0" width="40" height="50" fill="white" stroke="#2196f3" stroke-width="1" /><rect x="12" y="52" width="32" height="20" fill="white" stroke="#2196f3" stroke-width="1" /></symbol><symbol id="bathtub" viewBox="0 0 136 56" overflow="visible"><rect x="0" y="0" width="136" height="56" fill="white" stroke="#2196f3" stroke-width="1.5" /></symbol><symbol id="wardrobe" viewBox="0 0 96 48" overflow="visible"><rect x="0" y="0" width="96" height="48" fill="#f8f8f8" stroke="#666" stroke-width="1" /><circle cx="24" cy="24" r="2" fill="#666" /><circle cx="72" cy="24" r="2" fill="#666" /></symbol><symbol id="north-arrow" viewBox="0 0 24 40" overflow="visible"><path d="M 12,4 L 8,16 L 12,12 L 16,16 Z" fill="#333" stroke="#333" stroke-width="1" /><text x="12" y="32" text-anchor="middle" font-family="Arial" font-size="8" fill="#333" /><tspan>N</tspan></symbol></defs><g id="grid"><line x1="70.0" y1="70.0" x2="70.0" y2="798.0" stroke="#e0e0e0" stroke-width="0.3" /><line x1="150.0" y1="70.0" x2="150.0" y2="798.0" stroke="#e0e0e0" stroke-width="0.3" /><line x1="230.0" y1="70.0" x2="230.0" y2="798.0" stroke="#e0e0e0" stroke-width="0.3" /><line x1="310.0" y1="70.0" x2="310.0" y2="798.0" stroke="#e0e0e0" stroke-width="0.3" /><line x1="390.0" y1="70.0" x2="390.0" y2="798.0" stroke="#e0e0e0" stroke-width="0.3" /><line x1="470.0" y1="70.0" x2="470.0" y2="798.0" stroke="#e0e0e0" stroke-width="0.3" /><line x1="550.0" y1="70.0" x2="550.0" y2="798.0" stroke="#e0e0e0" stroke-width="0.3" /><line x1="630.0" y1="70.0" x2="630.0" y2="798.0" stroke="#e0e0e0" stroke-width="0.3" /><line x1="710.0" y1="70.0" x2="710.0" y2="798.0" stroke="#e0e0e0" stroke-width="0.3" /><line x1="790.0" y1="70.0" x2="790.0" y2="798.0" stroke="#e0e0e0" stroke-width="0.3" /><line x1="870.0" y1="70.0" x2="870.0" y2="798.0" stroke="#e0e0e0" stroke-width="0.3" /><line x1="950.0" y1="70.0" x2="950.0" y2="798.0" stroke="#e0e0e0" stroke-width="0.3" /><line x1="70.0" y1="70.0" x2="950.0" y2="70.0" stroke="#e0e0e0" stroke-width="0.3" /><line x1="70.0" y1="150.0" x2="950.0" y2="150.0" stroke="#e0e0e0" stroke-width="0.3" /><line x1="70.0" y1="230.0" x2="950.0" y2="230.0" stroke="#e0e0e0" stroke-width="0.3" /><line x1="70.0" y1="310.0" x2="950.0" y2="310.0" stroke="#e0e0e0" stroke-width="0.3" /><line x1="70.0" y1="390.0" x2="950.0" y2="390.0" stroke="#e0e0e0" stroke-width="0.3" /><line x1="70.0" y1="470.0" x2="950.0" y2="470.0" stroke="#e0e0e0" stroke-width="0.3" /><line x1="70.0" y1="550.0" x2="950.0" y2="550.0" stroke="#e0e0e0" stroke-width="0.3" /><line x1="70.0" y1="630.0" x2="950.0" y2="630.0" stroke="#e0e0e0" stroke-width="0.3" /><line x1="70.0" y1="710.0" x2="950.0" y2="710.0" stroke="#e0e0e0" stroke-width="0.3" /><line x1="70.0" y1="790.0" x2="950.0" y2="790.0" stroke="#e0e0e0" stroke-width="0.3" /></g><g id="corridors"><path d="M514.0,478.0 L910.0,478.0 L946.0,478.0 L946.0,382.0 L910.0,382.0 L514.0,382.0 Z" fill="url(#corridor-hatch)" stroke="#78909c" stroke-width="1" stroke-dasharray="4,2" /><text x="730.0" y="430.0" text-anchor="middle" font-size="7" fill="#607d8b" font-style="italic">Corridor</text></g><g id="rooms"><path d="M382.0,802.0 L946.0,802.0 L946.0,574.0 L382.0,574.0 Z" fill="#bfdbfe" stroke="none" /><path d="M70.0,478.0 L382.0,478.0 L382.0,70.0 L70.0,70.0 Z" fill="#bfdbfe" stroke="none" /><path d="M562.0,382.0 L946.0,382.0 L946.0,70.0 L562.0,70.0 Z" fill="#bbf7d0" stroke="none" /><path d="M562.0,574.0 L562.0,478.0 L514.0,478.0 L514.0,382.0 L562.0,382.0 L562.0,70.0 L382.0,70.0 L382.0,574.0 Z" fill="#fef08a" stroke="none" /><path d="M382.0,802.0 L382.0,634.0 L70.0,634.0 L70.0,802.0 Z" fill="#e9d5ff" stroke="none" /><path d="M382.0,478.0 L70.0,478.0 L70.0,634.0 L382.0,634.0 Z" fill="#e9d5ff" stroke="none" /></g><g id="walls"><line x1="70.0" y1="802.0" x2="946.0" y2="802.0" stroke="#37474f" stroke-width="1.5" stroke-linecap="round" /><line x1="946.0" y1="70.0" x2="946.0" y2="478.0" stroke="#37474f" stroke-width="1.5" stroke-linecap="round" /><line x1="946.0" y1="574.0" x2="946.0" y2="802.0" stroke="#37474f" stroke-width="1.5" stroke-linecap="round" /><line x1="382.0" y1="574.0" x2="405.2" y2="574.0" stroke="#37474f" stroke-width="1.5" stroke-linecap="round" /><line x1="478.8" y1="574.0" x2="946.0" y2="574.0" stroke="#37474f" stroke-width="1.5" stroke-linecap="round" /><line x1="382.0" y1="70.0" x2="382.0" y2="93.2" stroke="#37474f" stroke-width="1.5" stroke-linecap="round" /><line x1="382.0" y1="166.8" x2="382.0" y2="669.2" stroke="#37474f" stroke-width="1.5" stroke-linecap="round" /><line x1="382.0" y1="742.8" x2="382.0" y2="802.0" stroke="#37474f" stroke-width="1.5" stroke-linecap="round" /><line x1="70.0" y1="478.0" x2="93.2" y2="478.0" stroke="#37474f" stroke-width="1.5" stroke-linecap="round" /><line x1="166.8" y1="478.0" x2="382.0" y2="478.0" stroke="#37474f" stroke-width="1.5" stroke-linecap="round" /><line x1="514.0" y1="478.0" x2="946.0" y2="478.0" stroke="#37474f" stroke-width="1.5" stroke-linecap="round" /><line x1="70.0" y1="70.0" x2="441.6" y2="70.0" stroke="#37474f" stroke-width="1.5" stroke-linecap="round" /><line x1="502.4" y1="70.0" x2="645.6" y2="70.0" stroke="#37474f" stroke-width="1.5" stroke-linecap="round" /><line x1="862.4" y1="70.0" x2="946.0" y2="70.0" stroke="#37474f" stroke-width="1.5" stroke-linecap="round" /><line x1="70.0" y1="70.0" x2="70.0" y2="213.6" stroke="#37474f" stroke-width="1.5" stroke-linecap="round" /><line x1="70.0" y1="334.4" x2="70.0" y2="802.0" stroke="#37474f" stroke-width="1.5" stroke-linecap="round" /><line x1="514.0" y1="382.0" x2="585.2" y2="382.0" stroke="#37474f" stroke-width="1.5" stroke-linecap="round" /><line x1="658.8" y1="382.0" x2="946.0" y2="382.0" stroke="#37474f" stroke-width="1.5" stroke-linecap="round" /><line x1="562.0" y1="70.0" x2="562.0" y2="93.2" stroke="#37474f" stroke-width="1.5" stroke-linecap="round" /><line x1="562.0" y1="166.8" x2="562.0" y2="382.0" stroke="#37474f" stroke-width="1.5" stroke-linecap="round" /><line x1="562.0" y1="478.0" x2="562.0" y2="574.0" stroke="#37474f" stroke-width="1.5" stroke-linecap="round" /><line x1="514.0" y1="382.0" x2="514.0" y2="478.0" stroke="#37474f" stroke-width="1.5" stroke-linecap="round" /><line x1="70.0" y1="634.0" x2="382.0" y2="634.0" stroke="#37474f" stroke-width="1.5" stroke-linecap="round" /></g><g id="entrance"><line x1="950.0" y1="394.0" x2="950.0" y2="474.0" stroke="white" stroke-width="6.0" /><path d="M965.0,434.0 L950.0,434.0 L956.0,430.0 M950.0,434.0 L956.0,438.0" stroke="#d32f2f" stroke-width="1.5" fill="none" /><text x="984.0" y="437.0" text-anchor="middle" font-size="8" fill="#d32f2f" font-weight="bold">ENTRANCE</text></g><g id="doors"><line x1="582.0" y1="382.0" x2="654.0" y2="382.0" stroke="white" stroke-width="5.0" /><line x1="582.0" y1="382.0" x2="654.0" y2="382.0" stroke="#37474f" stroke-width="2.0" /><path d="M654.0,382.0 A72.0,72.0 0 0 1 582.0,310.0" fill="none" stroke="#455a64" stroke-width="1.5" stroke-dasharray="4,3" /><line x1="402.0" y1="574.0" x2="474.0" y2="574.0" stroke="white" stroke-width="5.0" /><line x1="402.0" y1="574.0" x2="474.0" y2="574.0" stroke="#37474f" stroke-width="2.0" /><path d="M474.0,574.0 A72.0,72.0 0 0 1 402.0,502.0" fill="none" stroke="#455a64" stroke-width="1.5" stroke-dasharray="4,3" /><line x1="382.0" y1="672.7" x2="382.0" y2="744.7" stroke="white" stroke-width="5.0" /><line x1="382.0" y1="672.7" x2="382.0" y2="744.7" stroke="#37474f" stroke-width="2.0" /><path d="M382.0,744.7 A72.0,72.0 0 0 1 454.0,672.7" fill="none" stroke="#455a64" stroke-width="1.5" stroke-dasharray="4,3" /><line x1="382.0" y1="90.0" x2="382.0" y2="162.0" stroke="white" stroke-width="5.0" /><line x1="382.0" y1="90.0" x2="382.0" y2="162.0" stroke="#37474f" stroke-width="2.0" /><path d="M382.0,162.0 A72.0,72.0 0 0 1 454.0,90.0" fill="none" stroke="#455a64" stroke-width="1.5" stroke-dasharray="4,3" /><line x1="90.0" y1="478.0" x2="162.0" y2="478.0" stroke="white" stroke-width="5.0" /><line x1="90.0" y1="478.0" x2="162.0" y2="478.0" stroke="#37474f" stroke-width="2.0" /><path d="M162.0,478.0 A72.0,72.0 0 0 1 90.0,406.0" fill="none" stroke="#455a64" stroke-width="1.5" stroke-dasharray="4,3" /><line x1="562.0" y1="90.0" x2="562.0" y2="162.0" stroke="white" stroke-width="5.0" /><line x1="562.0" y1="90.0" x2="562.0" y2="162.0" stroke="#37474f" stroke-width="2.0" /><path d="M562.0,162.0 A72.0,72.0 0 0 1 634.0,90.0" fill="none" stroke="#455a64" stroke-width="1.5" stroke-dasharray="4,3" /><line x1="70.0" y1="70.0" x2="150.0" y2="70.0" stroke="white" stroke-width="5.0" /><line x1="70.0" y1="70.0" x2="150.0" y2="70.0" stroke="#37474f" stroke-width="2.0" /><path d="M150.0,70.0 A80.0,80.0 0 0 1 70.0,-10.0" fill="none" stroke="#d32f2f" stroke-width="1.8" stroke-dasharray="5,3" /></g><g id="room-labels"><text x="664.0" y="684.0" text-anchor="middle" font-size="13" font-weight="700" fill="#1a237e">Bedroom 1</text><text x="664.0" y="700.0" text-anchor="middle" font-size="10" fill="#37474f">20.1 sq.m</text><text x="226.0" y="270.0" text-anchor="middle" font-size="13" font-weight="700" fill="#1a237e">Bedroom 2</text><text x="226.0" y="286.0" text-anchor="middle" font-size="10" fill="#37474f">19.9 sq.m</text><text x="754.0" y="222.0" text-anchor="middle" font-size="13" font-weight="700" fill="#1a237e">LivingRoom 1</text><text x="754.0" y="238.0" text-anchor="middle" font-size="10" fill="#37474f">18.7 sq.m</text><text x="472.0" y="318.0" text-anchor="middle" font-size="13" font-weight="700" fill="#1a237e">Kitchen 1</text><text x="472.0" y="334.0" text-anchor="middle" font-size="10" fill="#37474f">14.2 sq.m</text><text x="226.0" y="714.0" text-anchor="middle" font-size="13" font-weight="700" fill="#1a237e">Bathroom 1</text><text x="226.0" y="730.0" text-anchor="middle" font-size="10" fill="#37474f">8.2 sq.m</text><text x="226.0" y="552.0" text-anchor="middle" font-size="13" font-weight="700" fill="#1a237e">Bathroom 2</text><text x="226.0" y="568.0" text-anchor="middle" font-size="10" fill="#37474f">7.6 sq.m</text></g><g id="boundary-dims"><line x1="70.0" y1="826.0" x2="950.0" y2="826.0" stroke="#90a4ae" stroke-width="0.5" /><line x1="70.0" y1="823.0" x2="70.0" y2="829.0" stroke="#90a4ae" stroke-width="0.5" /><line x1="950.0" y1="823.0" x2="950.0" y2="829.0" stroke="#90a4ae" stroke-width="0.5" /><text x="510.0" y="823.0" text-anchor="middle" font-size="7" fill="#78909c">11.00 m</text><line x1="978.0" y1="70.0" x2="978.0" y2="798.0" stroke="#90a4ae" stroke-width="0.5" /><line x1="975.0" y1="70.0" x2="981.0" y2="70.0" stroke="#90a4ae" stroke-width="0.5" /><line x1="975.0" y1="798.0" x2="981.0" y2="798.0" stroke="#90a4ae" stroke-width="0.5" /><text x="986.0" y="434.0" text-anchor="middle" font-size="7" fill="#78909c" transform="rotate(-90,986.0,434.0)">9.10 m</text></g><g><rect x="0" y="918" width="1280" height="60" fill="#263238" /><text x="70" y="940" font-size="16" font-weight="bold" fill="white">NL Interface - Algorithmic Run</text><text x="70" y="956" font-size="11" fill="#b0bec5">Occupancy: Residential  |  Total Area: 100.1 sq.m  |  Scale: 1:80  |  GenAI Floor Plan Generator</text><line x1="860" y1="946" x2="1100" y2="946" stroke="white" stroke-width="2" /><line x1="860" y1="943" x2="860" y2="949" stroke="white" stroke-width="1" /><text x="860" y="958" text-anchor="middle" font-size="9" fill="#b0bec5">0m</text><line x1="940" y1="943" x2="940" y2="949" stroke="white" stroke-width="1" /><text x="940" y="958" text-anchor="middle" font-size="9" fill="#b0bec5">1m</text><line x1="1020" y1="943" x2="1020" y2="949" stroke="white" stroke-width="1" /><text x="1020" y="958" text-anchor="middle" font-size="9" fill="#b0bec5">2m</text><line x1="1100" y1="943" x2="1100" y2="949" stroke="white" stroke-width="1" /><text x="1100" y="958" text-anchor="middle" font-size="9" fill="#b0bec5">3m</text></g><g transform="translate(1080,40)"><path d="M0,-20 L5,-5 L0,-10 L-5,-5 Z" fill="#d32f2f" stroke="#263238" stroke-width="0.5" /><text x="0" y="-24" text-anchor="middle" font-size="10" font-weight="bold" fill="#263238">N</text></g><g id="legend" transform="translate(1126, 70)"><text x="0" y="14" font-size="13" font-weight="bold" fill="#263238">Legend</text><rect x="0" y="28" width="20" height="20" fill="#bfdbfe" stroke="#37474f" stroke-width="1" /><text x="28" y="42" font-size="12" fill="#263238">Bedroom</text><rect x="0" y="56" width="20" height="20" fill="#bbf7d0" stroke="#37474f" stroke-width="1" /><text x="28" y="70" font-size="12" fill="#263238">LivingRoom</text><rect x="0" y="84" width="20" height="20" fill="#fef08a" stroke="#37474f" stroke-width="1" /><text x="28" y="98" font-size="12" fill="#263238">Kitchen</text><rect x="0" y="112" width="20" height="20" fill="#e9d5ff" stroke="#37474f" stroke-width="1" /><text x="28" y="126" font-size="12" fill="#263238">Bathroom</text></g></svg>