<?xml version="1.0" encoding="UTF-8"?>
<svg xmlns="http://www.w3.org/2000/svg" width="1736" height="1210" viewBox="0 0 1736 1210" font-family="'Segoe UI', Helvetica, Arial, sans-serif"><rect width="100%" height="100%" fill="white" /><defs><pattern id="corridor-hatch" patternUnits="userSpaceOnUse" width="8" height="8"><rect width="8" height="8" fill="#f5f5f5" /><path d="M0,8 l8,-8 M-2,2 l4,-4 M6,10 l4,-4" stroke="#bdbdbd" stroke-width="0.5" /></pattern><filter id="shadow" x="-2%" y="-2%" width="104%" height="104%"><feDropShadow dx="1" dy="1" stdDeviation="2" flood-opacity="0.15" /></filter><symbol id="door-swing" viewBox="0 0 90 90" overflow="visible"><path d="M 0,0 Q 90,0 90,90" fill="none" stroke="#78909c" stroke-width="0.8" stroke-dasharray="3,2" /></symbol><symbol id="door-double" viewBox="0 0 180 90" overflow="visible"><path d="M 0,0 Q 90,0 90,90 M 180,0 Q 90,0 90,90" fill="none" stroke="#78909c" stroke-width="0.8" stroke-dasharray="3,2" /></symbol><symbol id="window" viewBox="0 0 100 10" overflow="visible"><rect x="0" y="3" width="100" height="4" fill="none" stroke="#2196f3" stroke-width="1.5" /><line x1="50" y1="3" x2="50" y2="7" stroke="#2196f3" stroke-width="1" /></symbol><symbol id="bed-double" viewBox="0 0 120 160" overflow="visible"><rect x="5" y="5" width="110" height="150" fill="#e0e0e0" stroke="#666" stroke-width="1" /><rect x="0" y="0" width="120" height="20" fill="#bdbdbd" stroke="#666" stroke-width="1" /></symbol><symbol id="bed-single" viewBox="0 0 72 160" overflow="visible"><rect x="5" y="5" width="62" height="150" fill="#e0e0e0" stroke="#666" stroke-width="1" /><rect x="0" y="0" width="72" height="20" fill="#bdbdbd" stroke="#666" stroke-width="1" /></symbol><symbol id="kitchen-counter" viewBox="0 0 240 48" overflow="visible"><rect x="0" y="0" width="240" height="48" fill="#f5f5f5" stroke="#666" stroke-width="1" /><circle cx="60" cy="24" r="15" fill="none" stroke="#2196f3" stroke-width="1" /><circle cx="140" cy="24" r="8" fill="none" stroke="#ff5722" stroke-width="1" /><circle cx="170" cy="24" r="8" fill="none" stroke="#ff5722" stroke-width="1" /><circle cx="200" cy="24" r="8" fill="none" stroke="#ff5722" stroke-width="1" /><circle cx="230" cy="24" r="8" fill="none" stroke="#ff5722" stroke-width="1" /></symbol><symbol id="dining-table" viewBox="0 0 96 64" overflow="visible"><rect x="0" y="0" width="96" height="64" fill="#ddd" stroke="#666" stroke-width="1" /></symbol><symbol id="chair" viewBox="0 0 40 40" overflow="visible"><rect x="5" y="5" width="30" height="30" fill="#f0f0f0" stroke="#666" stroke-width="1" /><rect x="5" y="0" width="30" height="10" fill="#e0e0e0" stroke="#666" stroke-width="1" /></symbol><symbol id="sofa" viewBox="0 0 160 72" overflow="visible"><rect x="0" y="10" width="160" height="52" fill="#e8e8e8" stroke="#666" stroke-width="1" /><rect x="0" y="0" width="160" height="20" fill="#d0d0d0" stroke="#666" stroke-width="1" /></symbol><symbol id="toilet" viewBox="0 0 56 72" overflow="visible"><rect x="8" y="0" width="40" height="50" fill="white" stroke="#2196f3" stroke-width="1" /><rect x="12" y="52" width="32" height="20" fill="white" stroke="#2196f3" stroke-width="1" /></symbol><symbol id="bathtub" viewBox="0 0 136 56" overflow="visible"><rect x="0" y="0" width="136" height="56" fill="white" stroke="#2196f3" stroke-width="1.5" /></symbol><symbol id="wardrobe" viewBox="0 0 96 48" overflow="visible"><rect x="0" y="0" width="96" height="48" fill="#f8f8f8" stroke="#666" stroke-width="1" /><circle cx="24" cy="24" r="2" fill="#666" /><circle cx="72" cy="24" r="2" fill="#666" /></symbol><symbol id="north-arrow" viewBox="0 0 24 40" overflow="visible"><path d="M 12,4 L 8,16 L 12,12 L 16,16 Z" fill="#333" stroke="#333" stroke-width="1" /><text x="12" y="32" text-anchor="middle" font-family="Arial" font-size="8" fill="#333" /><tspan>N</tspan></symbol></defs><g id="grid"><line x1="70.0" y1="70.0" x2="70.0" y2="1030.0" stroke="#e0e0e0" stroke-width="0.3" /><line x1="150.0" y1="70.0" x2="150.0" y2="1030.0" stroke="#e0e0e0" stroke-width="0.3" /><line x1="230.0" y1="70.0" x2="230.0" y2="1030.0" stroke="#e0e0e0" stroke-width="0.3" /><line x1="310.0" y1="70.0" x2="310.0" y2="1030.0" stroke="#e0e0e0" stroke-width="0.3" /><line x1="390.0" y1="70.0" x2="390.0" y2="1030.0" stroke="#e0e0e0" stroke-width="0.3" /><line x1="470.0" y1="70.0" x2="470.0" y2="1030.0" stroke="#e0e0e0" stroke-width="0.3" /><line x1="550.0" y1="70.0" x2="550.0" y2="1030.0" stroke="#e0e0e0" stroke-width="0.3" /><line x1="630.0" y1="70.0" x2="630.0" y2="1030.0" stroke="#e0e0e0" stroke-width="0.3" /><line x1="710.0" y1="70.0" x2="710.0" y2="1030.0" stroke="#e0e0e0" stroke-width="0.3" /><line x1="790.0" y1="70.0" x2="790.0" y2="1030.0" stroke="#e0e0e0" stroke-width="0.3" /><line x1="870.0" y1="70.0" x2="870.0" y2="1030.0" stroke="#e0e0e0" stroke-width="0.3" /><line x1="950.0" y1="70.0" x2="950.0" y2="1030.0" stroke="#e0e0e0" stroke-width="0.3" /><line x1="1030.0" y1="70.0" x2="1030.0" y2="1030.0" stroke="#e0e0e0" stroke-width="0.3" /><line x1="1110.0" y1="70.0" x2="1110.0" y2="1030.0" stroke="#e0e0e0" stroke-width="0.3" /><line x1="1190.0" y1="70.0" x2="1190.0" y2="1030.0" stroke="#e0e0e0" stroke-width="0.3" /><line x1="1270.0" y1="70.0" x2="1270.0" y2="1030.0" stroke="#e0e0e0" stroke-width="0.3" /><line x1="1350.0" y1="70.0" x2="1350.0" y2="1030.0" stroke="#e0e0e0" stroke-width="0.3" /><line x1="70.0" y1="70.0" x2="1406.0" y2="70.0" stroke="#e0e0e0" stroke-width="0.3" /><line x1="70.0" y1="150.0" x2="1406.0" y2="150.0" stroke="#e0e0e0" stroke-width="0.3" /><line x1="70.0" y1="230.0" x2="1406.0" y2="230.0" stroke="#e0e0e0" stroke-width="0.3" /><line x1="70.0" y1="310.0" x2="1406.0" y2="310.0" stroke="#e0e0e0" stroke-width="0.3" /><line x1="70.0" y1="390.0" x2="1406.0" y2="390.0" stroke="#e0e0e0" stroke-width="0.3" /><line x1="70.0" y1="470.0" x2="1406.0" y2="470.0" stroke="#e0e0e0" stroke-width="0.3" /><line x1="70.0" y1="550.0" x2="1406.0" y2="550.0" stroke="#e0e0e0" stroke-width="0.3" /><line x1="70.0" y1="630.0" x2="1406.0" y2="630.0" stroke="#e0e0e0" stroke-width="0.3" /><line x1="70.0" y1="710.0" x2="1406.0" y2="710.0" stroke="#e0e0e0" stroke-width="0.3" /><line x1="70.0" y1="790.0" x2="1406.0" y2="790.0" stroke="#e0e0e0" stroke-width="0.3" /><line x1="70.0" y1="870.0" x2="1406.0" y2="870.0" stroke="#e0e0e0" stroke-width="0.3" /><line x1="70.0" y1="950.0" x2="1406.0" y2="950.0" stroke="#e0e0e0" stroke-width="0.3" /><line x1="70.0" y1="1030.0" x2="1406.0" y2="1030.0" stroke="#e0e0e0" stroke-width="0.3" /></g><g id="corridors"><path d="M790.0,70.0 L742.0,70.0 L682.0,70.0 L682.0,550.0 L682.0,982.0 L1366.0,982.0 L790.0,982.0 L790.0,550.0 L790.0,118.0 Z" fill="url(#corridor-hatch)" stroke="#78909c" stroke-width="1" stroke-dasharray="4,2" /><text x="1024.0" y="526.0" text-anchor="middle" font-size="7" fill="#607d8b" font-style="italic">Corridor</text></g><g id="rooms"><path d="M682.0,550.0 L70.0,550.0 L70.0,790.0 L682.0,790.0 Z" fill="#bfdbfe" stroke="none" /><path d="M874.0,70.0 L874.0,394.0 L1402.0,394.0 L1402.0,70.0 Z" fill="#bfdbfe" stroke="none" /><path d="M874.0,718.0 L1402.0,718.0 L1402.0,394.0 L874.0,394.0 Z" fill="#bfdbfe" stroke="none" /><path d="M874.0,1030.0 L874.0,982.0 L682.0,982.0 L682.0,790.0 L70.0,790.0 L70.0,1030.0 Z" fill="#bfdbfe" stroke="none" /><path d="M298.0,70.0 L298.0,550.0 L682.0,550.0 L682.0,70.0 Z" fill="#bbf7d0" stroke="none" /><path d="M70.0,70.0 L70.0,550.0 L298.0,550.0 L298.0,70.0 Z" fill="#fef08a" stroke="none" /><path d="M1138.0,718.0 L1138.0,982.0 L1366.0,982.0 L1138.0,982.0 L1138.0,1030.0 L1402.0,1030.0 L1402.0,718.0 Z" fill="#e9d5ff" stroke="none" /><path d="M874.0,718.0 L874.0,982.0 L1138.0,982.0 L1138.0,718.0 Z" fill="#e9d5ff" stroke="none" /></g><g id="walls"><line x1="70.0" y1="550.0" x2="93.2" y2="550.0" stroke="#37474f" stroke-width="1.5" stroke-linecap="round" /><line x1="166.8" y1="550.0" x2="682.0" y2="550.0" stroke="#37474f" stroke-width="1.5" stroke-linecap="round" /><line x1="70.0" y1="70.0" x2="70.0" y2="237.6" stroke="#37474f" stroke-width="1.5" stroke-linecap="round" /><line x1="70.0" y1="382.4" x2="70.0" y2="633.6" stroke="#37474f" stroke-width="1.5" stroke-linecap="round" /><line x1="70.0" y1="706.4" x2="70.0" y2="1030.0" stroke="#37474f" stroke-width="1.5" stroke-linecap="round" /><line x1="70.0" y1="790.0" x2="682.0" y2="790.0" stroke="#37474f" stroke-width="1.5" stroke-linecap="round" /><line x1="682.0" y1="70.0" x2="682.0" y2="93.2" stroke="#37474f" stroke-width="1.5" stroke-linecap="round" /><line x1="682.0" y1="166.8" x2="682.0" y2="573.2" stroke="#37474f" stroke-width="1.5" stroke-linecap="round" /><line x1="682.0" y1="646.8" x2="682.0" y2="813.2" stroke="#37474f" stroke-width="1.5" stroke-linecap="round" /><line x1="682.0" y1="886.8" x2="682.0" y2="982.0" stroke="#37474f" stroke-width="1.5" stroke-linecap="round" /><line x1="874.0" y1="70.0" x2="874.0" y2="1030.0" stroke="#37474f" stroke-width="1.5" stroke-linecap="round" /><line x1="874.0" y1="394.0" x2="897.2" y2="394.0" stroke="#37474f" stroke-width="1.5" stroke-linecap="round" /><line x1="970.8" y1="394.0" x2="1402.0" y2="394.0" stroke="#37474f" stroke-width="1.5" stroke-linecap="round" /><line x1="1402.0" y1="70.0" x2="1402.0" y2="1030.0" stroke="#37474f" stroke-width="1.5" stroke-linecap="round" /><line x1="70.0" y1="70.0" x2="381.6" y2="70.0" stroke="#37474f" stroke-width="1.5" stroke-linecap="round" /><line x1="598.4" y1="70.0" x2="790.0" y2="70.0" stroke="#37474f" stroke-width="1.5" stroke-linecap="round" /><line x1="874.0" y1="70.0" x2="1053.6" y2="70.0" stroke="#37474f" stroke-width="1.5" stroke-linecap="round" /><line x1="1222.4" y1="70.0" x2="1402.0" y2="70.0" stroke="#37474f" stroke-width="1.5" stroke-linecap="round" /><line x1="874.0" y1="718.0" x2="897.2" y2="718.0" stroke="#37474f" stroke-width="1.5" stroke-linecap="round" /><line x1="970.8" y1="718.0" x2="1041.2" y2="718.0" stroke="#37474f" stroke-width="1.5" stroke-linecap="round" /><line x1="1114.8" y1="718.0" x2="1402.0" y2="718.0" stroke="#37474f" stroke-width="1.5" stroke-linecap="round" /><line x1="682.0" y1="982.0" x2="897.2" y2="982.0" stroke="#37474f" stroke-width="1.5" stroke-linecap="round" /><line x1="970.8" y1="982.0" x2="1161.2" y2="982.0" stroke="#37474f" stroke-width="1.5" stroke-linecap="round" /><line x1="1234.8" y1="982.0" x2="1366.0" y2="982.0" stroke="#37474f" stroke-width="1.5" stroke-linecap="round" /><line x1="70.0" y1="1030.0" x2="333.6" y2="1030.0" stroke="#37474f" stroke-width="1.5" stroke-linecap="round" /><line x1="610.4" y1="1030.0" x2="874.0" y2="1030.0" stroke="#37474f" stroke-width="1.5" stroke-linecap="round" /><line x1="1138.0" y1="1030.0" x2="1245.6" y2="1030.0" stroke="#37474f" stroke-width="1.5" stroke-linecap="round" /><line x1="1294.4" y1="1030.0" x2="1402.0" y2="1030.0" stroke="#37474f" stroke-width="1.5" stroke-linecap="round" /><line x1="298.0" y1="70.0" x2="298.0" y2="93.2" stroke="#37474f" stroke-width="1.5" stroke-linecap="round" /><line x1="298.0" y1="166.8" x2="298.0" y2="550.0" stroke="#37474f" stroke-width="1.5" stroke-linecap="round" /><line x1="1138.0" y1="718.0" x2="1138.0" y2="1030.0" stroke="#37474f" stroke-width="1.5" stroke-linecap="round" /><line x1="790.0" y1="70.0" x2="790.0" y2="982.0" stroke="#37474f" stroke-width="1.5" stroke-linecap="round" /></g><g id="entrance"><line x1="698.0" y1="70.0" x2="778.0" y2="70.0" stroke="white" stroke-width="6.0" /><path d="M738.0,55.0 L738.0,70.0 L734.0,64.0 M738.0,70.0 L742.0,64.0" stroke="#d32f2f" stroke-width="1.5" fill="none" /><text x="738.0" y="48.0" text-anchor="middle" font-size="8" fill="#d32f2f" font-weight="bold">ENTRANCE</text></g><g id="doors"><line x1="682.0" y1="570.0" x2="682.0" y2="642.0" stroke="white" stroke-width="5.0" /><line x1="682.0" y1="570.0" x2="682.0" y2="642.0" stroke="#37474f" stroke-width="2.0" /><path d="M682.0,642.0 A72.0,72.0 0 0 1 754.0,570.0" fill="none" stroke="#455a64" stroke-width="1.5" stroke-dasharray="4,3" /><line x1="682.0" y1="810.0" x2="682.0" y2="882.0" stroke="white" stroke-width="5.0" /><line x1="682.0" y1="810.0" x2="682.0" y2="882.0" stroke="#37474f" stroke-width="2.0" /><path d="M682.0,882.0 A72.0,72.0 0 0 1 754.0,810.0" fill="none" stroke="#455a64" stroke-width="1.5" stroke-dasharray="4,3" /><line x1="682.0" y1="90.0" x2="682.0" y2="162.0" stroke="white" stroke-width="5.0" /><line x1="682.0" y1="90.0" x2="682.0" y2="162.0" stroke="#37474f" stroke-width="2.0" /><path d="M682.0,162.0 A72.0,72.0 0 0 1 754.0,90.0" fill="none" stroke="#455a64" stroke-width="1.5" stroke-dasharray="4,3" /><line x1="1158.0" y1="982.0" x2="1230.0" y2="982.0" stroke="white" stroke-width="5.0" /><line x1="1158.0" y1="982.0" x2="1230.0" y2="982.0" stroke="#37474f" stroke-width="2.0" /><path d="M1230.0,982.0 A72.0,72.0 0 0 1 1158.0,910.0" fill="none" stroke="#455a64" stroke-width="1.5" stroke-dasharray="4,3" /><line x1="894.0" y1="982.0" x2="966.0" y2="982.0" stroke="white" stroke-width="5.0" /><line x1="894.0" y1="982.0" x2="966.0" y2="982.0" stroke="#37474f" stroke-width="2.0" /><path d="M966.0,982.0 A72.0,72.0 0 0 1 894.0,910.0" fill="none" stroke="#455a64" stroke-width="1.5" stroke-dasharray="4,3" /><line x1="90.0" y1="550.0" x2="162.0" y2="550.0" stroke="white" stroke-width="5.0" /><line x1="90.0" y1="550.0" x2="162.0" y2="550.0" stroke="#37474f" stroke-width="2.0" /><path d="M162.0,550.0 A72.0,72.0 0 0 1 90.0,478.0" fill="none" stroke="#455a64" stroke-width="1.5" stroke-dasharray="4,3" /><line x1="894.0" y1="394.0" x2="966.0" y2="394.0" stroke="white" stroke-width="5.0" /><line x1="894.0" y1="394.0" x2="966.0" y2="394.0" stroke="#37474f" stroke-width="2.0" /><path d="M966.0,394.0 A72.0,72.0 0 0 1 894.0,322.0" fill="none" stroke="#455a64" stroke-width="1.5" stroke-dasharray="4,3" /><line x1="894.0" y1="718.0" x2="966.0" y2="718.0" stroke="white" stroke-width="5.0" /><line x1="894.0" y1="718.0" x2="966.0" y2="718.0" stroke="#37474f" stroke-width="2.0" /><path d="M966.0,718.0 A72.0,72.0 0 0 1 894.0,646.0" fill="none" stroke="#455a64" stroke-width="1.5" stroke-dasharray="4,3" /><line x1="1041.2" y1="718.0" x2="1113.2" y2="718.0" stroke="white" stroke-width="5.0" /><line x1="1041.2" y1="718.0" x2="1113.2" y2="718.0" stroke="#37474f" stroke-width="2.0" /><path d="M1113.2,718.0 A72.0,72.0 0 0 1 1041.2,646.0" fill="none" stroke="#455a64" stroke-width="1.5" stroke-dasharray="4,3" /><line x1="298.0" y1="90.0" x2="298.0" y2="162.0" stroke="white" stroke-width="5.0" /><line x1="298.0" y1="90.0" x2="298.0" y2="162.0" stroke="#37474f" stroke-width="2.0" /><path d="M298.0,162.0 A72.0,72.0 0 0 1 370.0,90.0" fill="none" stroke="#455a64" stroke-width="1.5" stroke-dasharray="4,3" /><line x1="70.0" y1="70.0" x2="150.0" y2="70.0" stroke="white" stroke-width="5.0" /><line x1="70.0" y1="70.0" x2="150.0" y2="70.0" stroke="#37474f" stroke-width="2.0" /><path d="M150.0,70.0 A80.0,80.0 0 0 1 70.0,-10.0" fill="none" stroke="#d32f2f" stroke-width="1.8" stroke-dasharray="5,3" /></g><g id="room-labels"><text x="376.0" y="666.0" text-anchor="middle" font-size="13" font-weight="700" fill="#1a237e">Bedroom 1</text><text x="376.0" y="682.0" text-anchor="middle" font-size="10" fill="#37474f">23.0 sq.m</text><text x="1138.0" y="228.0" text-anchor="middle" font-size="13" font-weight="700" fill="#1a237e">Bedroom 2</text><text x="1138.0" y="244.0" text-anchor="middle" font-size="10" fill="#37474f">26.7 sq.m</text><text x="1138.0" y="552.0" text-anchor="middle" font-size="13" font-weight="700" fill="#1a237e">Bedroom 3</text><text x="1138.0" y="568.0" text-anchor="middle" font-size="10" fill="#37474f">26.7 sq.m</text><text x="472.0" y="906.0" text-anchor="middle" font-size="13" font-weight="700" fill="#1a237e">Bedroom 4</text><text x="472.0" y="922.0" text-anchor="middle" font-size="10" fill="#37474f">30.2 sq.m</text><text x="490.0" y="306.0" text-anchor="middle" font-size="13" font-weight="700" fill="#1a237e">LivingRoom 1</text><text x="490.0" y="322.0" text-anchor="middle" font-size="10" fill="#37474f">28.8 sq.m</text><text x="184.0" y="306.0" text-anchor="middle" font-size="13" font-weight="700" fill="#1a237e">Kitchen 1</text><text x="184.0" y="322.0" text-anchor="middle" font-size="10" fill="#37474f">17.1 sq.m</text><text x="1270.0" y="870.0" text-anchor="middle" font-size="13" font-weight="700" fill="#1a237e">Bathroom 1</text><text x="1270.0" y="886.0" text-anchor="middle" font-size="10" fill="#37474f">12.9 sq.m</text><text x="1006.0" y="846.0" text-anchor="middle" font-size="13" font-weight="700" fill="#1a237e">Bathroom 2</text><text x="1006.0" y="862.0" text-anchor="middle" font-size="10" fill="#37474f">10.9 sq.m</text></g><g id="boundary-dims"><line x1="70.0" y1="1058.0" x2="1406.0" y2="1058.0" stroke="#90a4ae" stroke-width="0.5" /><line x1="70.0" y1="1055.0" x2="70.0" y2="1061.0" stroke="#90a4ae" stroke-width="0.5" /><line x1="1406.0" y1="1055.0" x2="1406.0" y2="1061.0" stroke="#90a4ae" stroke-width="0.5" /><text x="738.0" y="1055.0" text-anchor="middle" font-size="7" fill="#78909c">16.70 m</text><line x1="1434.0" y1="70.0" x2="1434.0" y2="1030.0" stroke="#90a4ae" stroke-width="0.5" /><line x1="1431.0" y1="70.0" x2="1437.0" y2="70.0" stroke="#90a4ae" stroke-width="0.5" /><line x1="1431.0" y1="1030.0" x2="1437.0" y2="1030.0" stroke="#90a4ae" stroke-width="0.5" /><text x="1442.0" y="550.0" text-anchor="middle" font-size="7" fill="#78909c" transform="rotate(-90,1442.0,550.0)">12.00 m</text></g><g><rect x="0" y="1150" width="1736" height="60" fill="#263238" /><text x="70" y="1172" font-size="16" font-weight="bold" fill="white">NL Interface - Algorithmic Run</text><text x="70" y="1188" font-size="11" fill="#b0bec5">Occupancy: Residential  |  Total Area: 200.4 sq.m  |  Scale: 1:80  |  GenAI Floor Plan Generator</text><line x1="1316" y1="1178" x2="1556" y2="1178" stroke="white" stroke-width="2" /><line x1="1316" y1="1175" x2="1316" y2="1181" stroke="white" stroke-width="1" /><text x="1316" y="1190" text-anchor="middle" font-size="9" fill="#b0bec5">0m</text><line x1="1396" y1="1175" x2="1396" y2="1181" stroke="white" stroke-width="1" /><text x="1396" y="1190" text-anchor="middle" font-size="9" fill="#b0bec5">1m</text><line x1="1476" y1="1175" x2="1476" y2="1181" stroke="white" stroke-width="1" /><text x="1476" y="1190" text-anchor="middle" font-size="9" fill="#b0bec5">2m</text><line x1="1556" y1="1175" x2="1556" y2="1181" stroke="white" stroke-width="1" /><text x="1556" y="1190" text-anchor="middle" font-size="9" fill="#b0bec5">3m</text></g><g transform="translate(1536,40)"><path d="M0,-20 L5,-5 L0,-10 L-5,-5 Z" fill="#d32f2f" stroke="#263238" stroke-width="0.5" /><text x="0" y="-24" text-anchor="middle" font-size="10" font-weight="bold" fill="#263238">N</text></g><g id="legend" transform="translate(1582, 70)"><text x="0" y="14" font-size="13" font-weight="bold" fill="#263238">Legend</text><rect x="0" y="28" width="20" height="20" fill="#bfdbfe" stroke="#37474f" stroke-width="1" /><text x="28" y="42" font-size="12" fill="#263238">Bedroom</text><rect x="0" y="56" width="20" height="20" fill="#bbf7d0" stroke="#37474f" stroke-width="1" /><text x="28" y="70" font-size="12" fill="#263238">LivingRoom</text><rect x="0" y="84" width="20" height="20" fill="#fef08a" stroke="#37474f" stroke-width="1" /><text x="28" y="98" font-size="12" fill="#263238">Kitchen</text><rect x="0" y="112" width="20" height="20" fill="#e9d5ff" stroke="#37474f" stroke-width="1" /><text x="28" y="126" font-size="12" fill="#263238">Bathroom</text></g></svg>