<?xml version="1.0" encoding="UTF-8"?>
<svg xmlns="http://www.w3.org/2000/svg" width="1664" height="1154" viewBox="0 0 1664 1154" font-family="'Segoe UI', Helvetica, Arial, sans-serif"><rect width="100%" height="100%" fill="white" /><defs><pattern id="corridor-hatch" patternUnits="userSpaceOnUse" width="8" height="8"><rect width="8" height="8" fill="#f5f5f5" /><path d="M0,8 l8,-8 M-2,2 l4,-4 M6,10 l4,-4" stroke="#bdbdbd" stroke-width="0.5" /></pattern><filter id="shadow" x="-2%" y="-2%" width="104%" height="104%"><feDropShadow dx="1" dy="1" stdDeviation="2" flood-opacity="0.15" /></filter><symbol id="door-swing" viewBox="0 0 90 90" overflow="visible"><path d="M 0,0 Q 90,0 90,90" fill="none" stroke="#78909c" stroke-width="0.8" stroke-dasharray="3,2" /></symbol><symbol id="door-double" viewBox="0 0 180 90" overflow="visible"><path d="M 0,0 Q 90,0 90,90 M 180,0 Q 90,0 90,90" fill="none" stroke="#78909c" stroke-width="0.8" stroke-dasharray="3,2" /></symbol><symbol id="window" viewBox="0 0 100 10" overflow="visible"><rect x="0" y="3" width="100" height="4" fill="none" stroke="#2196f3" stroke-width="1.5" /><line x1="50" y1="3" x2="50" y2="7" stroke="#2196f3" stroke-width="1" /></symbol><symbol id="bed-double" viewBox="0 0 120 160" overflow="visible"><rect x="5" y="5" width="110" height="150" fill="#e0e0e0" stroke="#666" stroke-width="1" /><rect x="0" y="0" width="120" height="20" fill="#bdbdbd" stroke="#666" stroke-width="1" /></symbol><symbol id="bed-single" viewBox="0 0 72 160" overflow="visible"><rect x="5" y="5" width="62" height="150" fill="#e0e0e0" stroke="#666" stroke-width="1" /><rect x="0" y="0" width="72" height="20" fill="#bdbdbd" stroke="#666" stroke-width="1" /></symbol><symbol id="kitchen-counter" viewBox="0 0 240 48" overflow="visible"><rect x="0" y="0" width="240" height="48" fill="#f5f5f5" stroke="#666" stroke-width="1" /><circle cx="60" cy="24" r="15" fill="none" stroke="#2196f3" stroke-width="1" /><circle cx="140" cy="24" r="8" fill="none" stroke="#ff5722" stroke-width="1" /><circle cx="170" cy="24" r="8" fill="none" stroke="#ff5722" stroke-width="1" /><circle cx="200" cy="24" r="8" fill="none" stroke="#ff5722" stroke-width="1" /><circle cx="230" cy="24" r="8" fill="none" stroke="#ff5722" stroke-width="1" /></symbol><symbol id="dining-table" viewBox="0 0 96 64" overflow="visible"><rect x="0" y="0" width="96" height="64" fill="#ddd" stroke="#666" stroke-width="1" /></symbol><symbol id="chair" viewBox="0 0 40 40" overflow="visible"><rect x="5" y="5" width="30" height="30" fill="#f0f0f0" stroke="#666" stroke-width="1" /><rect x="5" y="0" width="30" height="10" fill="#e0e0e0" stroke="#666" stroke-width="1" /></symbol><symbol id="sofa" viewBox="0 0 160 72" overflow="visible"><rect x="0" y="10" width="160" height="52" fill="#e8e8e8" stroke="#666" stroke-width="1" /><rect x="0" y="0" width="160" height="20" fill="#d0d0d0" stroke="#666" stroke-width="1" /></symbol><symbol id="toilet" viewBox="0 0 56 72" overflow="visible"><rect x="8" y="0" width="40" height="50" fill="white" stroke="#2196f3" stroke-width="1" /><rect x="12" y="52" width="32" height="20" fill="white" stroke="#2196f3" stroke-width="1" /></symbol><symbol id="bathtub" viewBox="0 0 136 56" overflow="visible"><rect x="0" y="0" width="136" height="56" fill="white" stroke="#2196f3" stroke-width="1.5" /></symbol><symbol id="wardrobe" viewBox="0 0 96 48" overflow="visible"><rect x="0" y="0" width="96" height="48" fill="#f8f8f8" stroke="#666" stroke-width="1" /><circle cx="24" cy="24" r="2" fill="#666" /><circle cx="72" cy="24" r="2" fill="#666" /></symbol><symbol id="north-arrow" viewBox="0 0 24 40" overflow="visible"><path d="M 12,4 L 8,16 L 12,12 L 16,16 Z" fill="#333" stroke="#333" stroke-width="1" /><text x="12" y="32" text-anchor="middle" font-family="Arial" font-size="8" fill="#333" /><tspan>N</tspan></symbol></defs><g id="grid"><line x1="70.0" y1="70.0" x2="70.0" y2="974.0" stroke="#e0e0e0" stroke-width="0.3" /><line x1="150.0" y1="70.0" x2="150.0" y2="974.0" stroke="#e0e0e0" stroke-width="0.3" /><line x1="230.0" y1="70.0" x2="230.0" y2="974.0" stroke="#e0e0e0" stroke-width="0.3" /><line x1="310.0" y1="70.0" x2="310.0" y2="974.0" stroke="#e0e0e0" stroke-width="0.3" /><line x1="390.0" y1="70.0" x2="390.0" y2="974.0" stroke="#e0e0e0" stroke-width="0.3" /><line x1="470.0" y1="70.0" x2="470.0" y2="974.0" stroke="#e0e0e0" stroke-width="0.3" /><line x1="550.0" y1="70.0" x2="550.0" y2="974.0" stroke="#e0e0e0" stroke-width="0.3" /><line x1="630.0" y1="70.0" x2="630.0" y2="974.0" stroke="#e0e0e0" stroke-width="0.3" /><line x1="710.0" y1="70.0" x2="710.0" y2="974.0" stroke="#e0e0e0" stroke-width="0.3" /><line x1="790.0" y1="70.0" x2="790.0" y2="974.0" stroke="#e0e0e0" stroke-width="0.3" /><line x1="870.0" y1="70.0" x2="870.0" y2="974.0" stroke="#e0e0e0" stroke-width="0.3" /><line x1="950.0" y1="70.0" x2="950.0" y2="974.0" stroke="#e0e0e0" stroke-width="0.3" /><line x1="1030.0" y1="70.0" x2="1030.0" y2="974.0" stroke="#e0e0e0" stroke-width="0.3" /><line x1="1110.0" y1="70.0" x2="1110.0" y2="974.0" stroke="#e0e0e0" stroke-width="0.3" /><line x1="1190.0" y1="70.0" x2="1190.0" y2="974.0" stroke="#e0e0e0" stroke-width="0.3" /><line x1="1270.0" y1="70.0" x2="1270.0" y2="974.0" stroke="#e0e0e0" stroke-width="0.3" /><line x1="70.0" y1="70.0" x2="1334.0" y2="70.0" stroke="#e0e0e0" stroke-width="0.3" /><line x1="70.0" y1="150.0" x2="1334.0" y2="150.0" stroke="#e0e0e0" stroke-width="0.3" /><line x1="70.0" y1="230.0" x2="1334.0" y2="230.0" stroke="#e0e0e0" stroke-width="0.3" /><line x1="70.0" y1="310.0" x2="1334.0" y2="310.0" stroke="#e0e0e0" stroke-width="0.3" /><line x1="70.0" y1="390.0" x2="1334.0" y2="390.0" stroke="#e0e0e0" stroke-width="0.3" /><line x1="70.0" y1="470.0" x2="1334.0" y2="470.0" stroke="#e0e0e0" stroke-width="0.3" /><line x1="70.0" y1="550.0" x2="1334.0" y2="550.0" stroke="#e0e0e0" stroke-width="0.3" /><line x1="70.0" y1="630.0" x2="1334.0" y2="630.0" stroke="#e0e0e0" stroke-width="0.3" /><line x1="70.0" y1="710.0" x2="1334.0" y2="710.0" stroke="#e0e0e0" stroke-width="0.3" /><line x1="70.0" y1="790.0" x2="1334.0" y2="790.0" stroke="#e0e0e0" stroke-width="0.3" /><line x1="70.0" y1="870.0" x2="1334.0" y2="870.0" stroke="#e0e0e0" stroke-width="0.3" /><line x1="70.0" y1="950.0" x2="1334.0" y2="950.0" stroke="#e0e0e0" stroke-width="0.3" /></g><g id="corridors" /><g id="rooms"><path d="M443.3,490.3 L991.0,490.3 L991.0,881.5 L443.3,881.5 Z" fill="#bbf7d0" stroke="none" /><path d="M70.0,70.0 L606.0,70.0 L606.0,482.3 L70.0,482.3 Z" fill="#fef08a" stroke="none" /><path d="M888.0,70.0 L1334.0,70.0 L1334.0,426.8 L888.0,426.8 Z" fill="#bfdbfe" stroke="none" /><path d="M70.0,620.5 L439.3,620.5 L439.3,974.0 L70.0,974.0 Z" fill="#bfdbfe" stroke="none" /><path d="M610.0,70.0 L880.0,70.0 L880.0,407.9 L610.0,407.9 Z" fill="#bfdbfe" stroke="none" /><path d="M995.0,621.6 L1334.0,621.6 L1334.0,974.0 L995.0,974.0 Z" fill="#bfdbfe" stroke="none" /><path d="M997.0,430.8 L1225.1,430.8 L1225.1,613.6 L997.0,613.6 Z" fill="#e9d5ff" stroke="none" /><path d="M518.2,676.4 L756.3,676.4 L756.3,974.0 L518.2,974.0 Z" fill="#e9d5ff" stroke="none" /></g><g id="walls"><line x1="442.0" y1="490.0" x2="489.2" y2="490.0" stroke="#37474f" stroke-width="1.5" stroke-linecap="round" /><line x1="562.8" y1="490.0" x2="994.0" y2="490.0" stroke="#37474f" stroke-width="1.5" stroke-linecap="round" /><line x1="994.0" y1="430.0" x2="994.0" y2="513.2" stroke="#37474f" stroke-width="1.5" stroke-linecap="round" /><line x1="994.0" y1="586.8" x2="994.0" y2="717.2" stroke="#37474f" stroke-width="1.5" stroke-linecap="round" /><line x1="994.0" y1="790.8" x2="994.0" y2="970.0" stroke="#37474f" stroke-width="1.5" stroke-linecap="round" /><line x1="442.0" y1="886.0" x2="994.0" y2="886.0" stroke="#37474f" stroke-width="1.5" stroke-linecap="round" /><line x1="442.0" y1="490.0" x2="442.0" y2="717.2" stroke="#37474f" stroke-width="1.5" stroke-linecap="round" /><line x1="442.0" y1="814.8" x2="442.0" y2="970.0" stroke="#37474f" stroke-width="1.5" stroke-linecap="round" /><line x1="70.0" y1="70.0" x2="657.2" y2="70.0" stroke="#37474f" stroke-width="1.5" stroke-linecap="round" /><line x1="742.8" y1="70.0" x2="1330.0" y2="70.0" stroke="#37474f" stroke-width="1.5" stroke-linecap="round" /><line x1="610.0" y1="70.0" x2="610.0" y2="201.2" stroke="#37474f" stroke-width="1.5" stroke-linecap="round" /><line x1="610.0" y1="274.8" x2="610.0" y2="478.0" stroke="#37474f" stroke-width="1.5" stroke-linecap="round" /><line x1="70.0" y1="478.0" x2="610.0" y2="478.0" stroke="#37474f" stroke-width="1.5" stroke-linecap="round" /><line x1="70.0" y1="70.0" x2="70.0" y2="213.6" stroke="#37474f" stroke-width="1.5" stroke-linecap="round" /><line x1="70.0" y1="346.4" x2="70.0" y2="478.0" stroke="#37474f" stroke-width="1.5" stroke-linecap="round" /><line x1="70.0" y1="622.0" x2="70.0" y2="970.0" stroke="#37474f" stroke-width="1.5" stroke-linecap="round" /><line x1="1330.0" y1="70.0" x2="1330.0" y2="189.6" stroke="#37474f" stroke-width="1.5" stroke-linecap="round" /><line x1="1330.0" y1="298.4" x2="1330.0" y2="430.0" stroke="#37474f" stroke-width="1.5" stroke-linecap="round" /><line x1="1330.0" y1="622.0" x2="1330.0" y2="970.0" stroke="#37474f" stroke-width="1.5" stroke-linecap="round" /><line x1="886.0" y1="430.0" x2="1077.2" y2="430.0" stroke="#37474f" stroke-width="1.5" stroke-linecap="round" /><line x1="1150.8" y1="430.0" x2="1330.0" y2="430.0" stroke="#37474f" stroke-width="1.5" stroke-linecap="round" /><line x1="886.0" y1="70.0" x2="886.0" y2="201.2" stroke="#37474f" stroke-width="1.5" stroke-linecap="round" /><line x1="886.0" y1="274.8" x2="886.0" y2="430.0" stroke="#37474f" stroke-width="1.5" stroke-linecap="round" /><line x1="70.0" y1="622.0" x2="442.0" y2="622.0" stroke="#37474f" stroke-width="1.5" stroke-linecap="round" /><line x1="994.0" y1="622.0" x2="1077.2" y2="622.0" stroke="#37474f" stroke-width="1.5" stroke-linecap="round" /><line x1="1150.8" y1="622.0" x2="1330.0" y2="622.0" stroke="#37474f" stroke-width="1.5" stroke-linecap="round" /><line x1="70.0" y1="970.0" x2="201.6" y2="970.0" stroke="#37474f" stroke-width="1.5" stroke-linecap="round" /><line x1="310.4" y1="970.0" x2="442.0" y2="970.0" stroke="#37474f" stroke-width="1.5" stroke-linecap="round" /><line x1="514.0" y1="970.0" x2="609.6" y2="970.0" stroke="#37474f" stroke-width="1.5" stroke-linecap="round" /><line x1="658.4" y1="970.0" x2="754.0" y2="970.0" stroke="#37474f" stroke-width="1.5" stroke-linecap="round" /><line x1="994.0" y1="970.0" x2="1113.6" y2="970.0" stroke="#37474f" stroke-width="1.5" stroke-linecap="round" /><line x1="1222.4" y1="970.0" x2="1330.0" y2="970.0" stroke="#37474f" stroke-width="1.5" stroke-linecap="round" /><line x1="610.0" y1="406.0" x2="886.0" y2="406.0" stroke="#37474f" stroke-width="1.5" stroke-linecap="round" /><line x1="1222.0" y1="430.0" x2="1222.0" y2="610.0" stroke="#37474f" stroke-width="1.5" stroke-linecap="round" /><line x1="994.0" y1="610.0" x2="1222.0" y2="610.0" stroke="#37474f" stroke-width="1.5" stroke-linecap="round" /><line x1="514.0" y1="682.0" x2="754.0" y2="682.0" stroke="#37474f" stroke-width="1.5" stroke-linecap="round" /><line x1="754.0" y1="682.0" x2="754.0" y2="970.0" stroke="#37474f" stroke-width="1.5" stroke-linecap="round" /><line x1="514.0" y1="682.0" x2="514.0" y2="970.0" stroke="#37474f" stroke-width="1.5" stroke-linecap="round" /></g><g id="entrance"><line x1="662.0" y1="70.0" x2="742.0" y2="70.0" stroke="white" stroke-width="6.0" /><path d="M702.0,55.0 L702.0,70.0 L698.0,64.0 M702.0,70.0 L706.0,64.0" stroke="#d32f2f" stroke-width="1.5" fill="none" /><text x="702.0" y="48.0" text-anchor="middle" font-size="8" fill="#d32f2f" font-weight="bold">ENTRANCE</text></g><g id="doors"><line x1="488.6" y1="486.3" x2="560.6" y2="486.3" stroke="white" stroke-width="5.0" /><line x1="488.6" y1="486.3" x2="560.6" y2="486.3" stroke="#37474f" stroke-width="2.0" /><path d="M560.6,486.3 A72.0,72.0 0 0 1 488.6,414.3" fill="none" stroke="#455a64" stroke-width="1.5" stroke-dasharray="4,3" /><line x1="443.3" y1="715.0" x2="443.3" y2="787.0" stroke="white" stroke-width="5.0" /><line x1="443.3" y1="715.0" x2="443.3" y2="787.0" stroke="#37474f" stroke-width="2.0" /><path d="M443.3,787.0 A72.0,72.0 0 0 1 515.3,715.0" fill="none" stroke="#455a64" stroke-width="1.5" stroke-dasharray="4,3" /><line x1="991.0" y1="715.6" x2="991.0" y2="787.6" stroke="white" stroke-width="5.0" /><line x1="991.0" y1="715.6" x2="991.0" y2="787.6" stroke="#37474f" stroke-width="2.0" /><path d="M991.0,787.6 A72.0,72.0 0 0 1 1063.0,715.6" fill="none" stroke="#455a64" stroke-width="1.5" stroke-dasharray="4,3" /><line x1="991.0" y1="516.0" x2="991.0" y2="588.0" stroke="white" stroke-width="5.0" /><line x1="991.0" y1="516.0" x2="991.0" y2="588.0" stroke="#37474f" stroke-width="2.0" /><path d="M991.0,588.0 A72.0,72.0 0 0 1 1063.0,516.0" fill="none" stroke="#455a64" stroke-width="1.5" stroke-dasharray="4,3" /><line x1="443.3" y1="743.0" x2="443.3" y2="815.0" stroke="white" stroke-width="5.0" /><line x1="443.3" y1="743.0" x2="443.3" y2="815.0" stroke="#37474f" stroke-width="2.0" /><path d="M443.3,815.0 A72.0,72.0 0 0 1 515.3,743.0" fill="none" stroke="#455a64" stroke-width="1.5" stroke-dasharray="4,3" /><line x1="606.0" y1="202.9" x2="606.0" y2="274.9" stroke="white" stroke-width="5.0" /><line x1="606.0" y1="202.9" x2="606.0" y2="274.9" stroke="#37474f" stroke-width="2.0" /><path d="M606.0,274.9 A72.0,72.0 0 0 1 678.0,202.9" fill="none" stroke="#455a64" stroke-width="1.5" stroke-dasharray="4,3" /><line x1="888.0" y1="202.9" x2="888.0" y2="274.9" stroke="white" stroke-width="5.0" /><line x1="888.0" y1="202.9" x2="888.0" y2="274.9" stroke="#37474f" stroke-width="2.0" /><path d="M888.0,274.9 A72.0,72.0 0 0 1 960.0,202.9" fill="none" stroke="#455a64" stroke-width="1.5" stroke-dasharray="4,3" /><line x1="1075.0" y1="428.8" x2="1147.0" y2="428.8" stroke="white" stroke-width="5.0" /><line x1="1075.0" y1="428.8" x2="1147.0" y2="428.8" stroke="#37474f" stroke-width="2.0" /><path d="M1147.0,428.8 A72.0,72.0 0 0 1 1075.0,356.8" fill="none" stroke="#455a64" stroke-width="1.5" stroke-dasharray="4,3" /><line x1="1075.0" y1="617.6" x2="1147.0" y2="617.6" stroke="white" stroke-width="5.0" /><line x1="1075.0" y1="617.6" x2="1147.0" y2="617.6" stroke="#37474f" stroke-width="2.0" /><path d="M1147.0,617.6 A72.0,72.0 0 0 1 1075.0,545.6" fill="none" stroke="#455a64" stroke-width="1.5" stroke-dasharray="4,3" /><line x1="662.0" y1="70.0" x2="742.0" y2="70.0" stroke="white" stroke-width="5.0" /><line x1="662.0" y1="70.0" x2="742.0" y2="70.0" stroke="#37474f" stroke-width="2.0" /><path d="M742.0,70.0 A80.0,80.0 0 0 1 662.0,-10.0" fill="none" stroke="#d32f2f" stroke-width="1.8" stroke-dasharray="5,3" /><line x1="662.0" y1="70.0" x2="742.0" y2="70.0" stroke="white" stroke-width="5.0" /><line x1="662.0" y1="70.0" x2="742.0" y2="70.0" stroke="#37474f" stroke-width="2.0" /><path d="M742.0,70.0 A80.0,80.0 0 0 1 662.0,-10.0" fill="none" stroke="#d32f2f" stroke-width="1.8" stroke-dasharray="5,3" /></g><g id="room-labels"><text x="717.2" y="681.9" text-anchor="middle" font-size="13" font-weight="700" fill="#1a237e">LivingRoom 1</text><text x="717.2" y="697.9" text-anchor="middle" font-size="10" fill="#37474f">33.5 sq.m</text><text x="338.0" y="272.1" text-anchor="middle" font-size="13" font-weight="700" fill="#1a237e">Kitchen 1</text><text x="338.0" y="288.1" text-anchor="middle" font-size="10" fill="#37474f">34.5 sq.m</text><text x="1111.0" y="244.4" text-anchor="middle" font-size="13" font-weight="700" fill="#1a237e">Bedroom 1</text><text x="1111.0" y="260.4" text-anchor="middle" font-size="10" fill="#37474f">24.9 sq.m</text><text x="254.7" y="793.3" text-anchor="middle" font-size="13" font-weight="700" fill="#1a237e">Bedroom 2</text><text x="254.7" y="809.3" text-anchor="middle" font-size="10" fill="#37474f">20.4 sq.m</text><text x="745.0" y="234.9" text-anchor="middle" font-size="13" font-weight="700" fill="#1a237e">Bedroom 3</text><text x="745.0" y="250.9" text-anchor="middle" font-size="10" fill="#37474f">14.3 sq.m</text><text x="1164.5" y="793.8" text-anchor="middle" font-size="13" font-weight="700" fill="#1a237e">Bedroom 4</text><text x="1164.5" y="809.8" text-anchor="middle" font-size="10" fill="#37474f">18.7 sq.m</text><text x="1111.0" y="518.2" text-anchor="middle" font-size="13" font-weight="700" fill="#1a237e">Bathroom 1</text><text x="1111.0" y="534.2" text-anchor="middle" font-size="10" fill="#37474f">6.5 sq.m</text><text x="637.2" y="821.2" text-anchor="middle" font-size="13" font-weight="700" fill="#1a237e">Bathroom 2</text><text x="637.2" y="837.2" text-anchor="middle" font-size="10" fill="#37474f">11.1 sq.m</text></g><g id="boundary-dims"><line x1="70.0" y1="1002.0" x2="1334.0" y2="1002.0" stroke="#90a4ae" stroke-width="0.5" /><line x1="70.0" y1="999.0" x2="70.0" y2="1005.0" stroke="#90a4ae" stroke-width="0.5" /><line x1="1334.0" y1="999.0" x2="1334.0" y2="1005.0" stroke="#90a4ae" stroke-width="0.5" /><text x="702.0" y="999.0" text-anchor="middle" font-size="7" fill="#78909c">15.80 m</text><line x1="1362.0" y1="70.0" x2="1362.0" y2="974.0" stroke="#90a4ae" stroke-width="0.5" /><line x1="1359.0" y1="70.0" x2="1365.0" y2="70.0" stroke="#90a4ae" stroke-width="0.5" /><line x1="1359.0" y1="974.0" x2="1365.0" y2="974.0" stroke="#90a4ae" stroke-width="0.5" /><text x="1370.0" y="522.0" text-anchor="middle" font-size="7" fill="#78909c" transform="rotate(-90,1370.0,522.0)">11.30 m</text></g><g><rect x="0" y="1094" width="1664" height="60" fill="#263238" /><text x="70" y="1116" font-size="16" font-weight="bold" fill="white">NL Interface - Planner Direct Run</text><text x="70" y="1132" font-size="11" fill="#b0bec5">Occupancy: Residential  |  Total Area: 163.8 sq.m  |  Scale: 1:80  |  GenAI Floor Plan Generator</text><line x1="1244" y1="1122" x2="1484" y2="1122" stroke="white" stroke-width="2" /><line x1="1244" y1="1119" x2="1244" y2="1125" stroke="white" stroke-width="1" /><text x="1244" y="1134" text-anchor="middle" font-size="9" fill="#b0bec5">0m</text><line x1="1324" y1="1119" x2="1324" y2="1125" stroke="white" stroke-width="1" /><text x="1324" y="1134" text-anchor="middle" font-size="9" fill="#b0bec5">1m</text><line x1="1404" y1="1119" x2="1404" y2="1125" stroke="white" stroke-width="1" /><text x="1404" y="1134" text-anchor="middle" font-size="9" fill="#b0bec5">2m</text><line x1="1484" y1="1119" x2="1484" y2="1125" stroke="white" stroke-width="1" /><text x="1484" y="1134" text-anchor="middle" font-size="9" fill="#b0bec5">3m</text></g><g transform="translate(1464,40)"><path d="M0,-20 L5,-5 L0,-10 L-5,-5 Z" fill="#d32f2f" stroke="#263238" stroke-width="0.5" /><text x="0" y="-24" text-anchor="middle" font-size="10" font-weight="bold" fill="#263238">N</text></g><g id="legend" transform="translate(1510, 70)"><text x="0" y="14" font-size="13" font-weight="bold" fill="#263238">Legend</text><rect x="0" y="28" width="20" height="20" fill="#bbf7d0" stroke="#37474f" stroke-width="1" /><text x="28" y="42" font-size="12" fill="#263238">LivingRoom</text><rect x="0" y="56" width="20" height="20" fill="#fef08a" stroke="#37474f" stroke-width="1" /><text x="28" y="70" font-size="12" fill="#263238">Kitchen</text><rect x="0" y="84" width="20" height="20" fill="#bfdbfe" stroke="#37474f" stroke-width="1" /><text x="28" y="98" font-size="12" fill="#263238">Bedroom</text><rect x="0" y="112" width="20" height="20" fill="#e9d5ff" stroke="#37474f" stroke-width="1" /><text x="28" y="126" font-size="12" fill="#263238">Bathroom</text></g></svg>